<?xml version="1.0" encoding="utf-8"?>
<!-- Generator: Adobe Illustrator 26.1.0, SVG Export Plug-In . SVG Version: 6.00 Build 0)  -->
<svg version="1.1" id="Livello_1" xmlns="http://www.w3.org/2000/svg" xmlns:xlink="http://www.w3.org/1999/xlink" x="0px" y="0px"
	 viewBox="0 0 100 100" style="enable-background:new 0 0 100 100;" xml:space="preserve">
<style type="text/css">
	.st0{fill:#F05542;}
</style>
<path class="st0" d="M50,0C29.3,0,12.5,16.8,12.5,37.6S50,100,50,100s37.5-41.6,37.5-62.4S70.7,0,50,0z M50,20.9
	c3.3,0,6.5,1.3,8.8,3.7c2.3,2.3,3.7,5.5,3.7,8.9c0,3.3-1.3,6.5-3.7,8.9S53.3,46,50,46s-6.5-1.3-8.8-3.7c-2.3-2.4-3.7-5.5-3.7-8.9
	c0-3.3,1.3-6.5,3.7-8.9C43.5,22.2,46.7,20.9,50,20.9z"/>
</svg>
