<?xml version="1.0" encoding="utf-8"?>
<!-- Generator: Adobe Illustrator 26.1.0, SVG Export Plug-In . SVG Version: 6.00 Build 0)  -->
<svg version="1.1" id="Livello_1" xmlns="http://www.w3.org/2000/svg" xmlns:xlink="http://www.w3.org/1999/xlink" x="0px" y="0px"
	 viewBox="0 0 50 50" style="enable-background:new 0 0 50 50;" xml:space="preserve">
<style type="text/css">
	.st0{fill:#4A484D;}
</style>
<path class="st0" d="M35,19.4c0,0.4-0.2,0.7-0.5,0.9l-8.8,5.5c-0.4,0.2-0.9,0.2-1.3,0l-8.8-5.5c-0.3-0.2-0.5-0.5-0.5-0.9
	c0-0.8,0.9-1.3,1.6-0.9l8.4,5.2l8.4-5.2C34.1,18.1,35,18.6,35,19.4z"/>
<path class="st0" d="M25,0C11.2,0,0,11.2,0,25s11.2,25,25,25s25-11.2,25-25S38.8,0,25,0z M37.5,32.5c0,1.4-1.1,2.5-2.5,2.5H15
	c-1.4,0-2.5-1.1-2.5-2.5l0-15c0-1.4,1.1-2.5,2.5-2.5h20c1.4,0,2.5,1.1,2.5,2.5V32.5z"/>
</svg>
