<?xml version="1.0" encoding="utf-8"?>
<!-- Generator: Adobe Illustrator 26.1.0, SVG Export Plug-In . SVG Version: 6.00 Build 0)  -->
<svg version="1.1" id="Livello_1" xmlns="http://www.w3.org/2000/svg" xmlns:xlink="http://www.w3.org/1999/xlink" x="0px" y="0px"
	 viewBox="0 0 24 24" style="enable-background:new 0 0 24 24;" xml:space="preserve">
<style type="text/css">
	.st0{fill:#4A484D;}
</style>
<g>
	<g id="SVGRepo_bgCarrier">
	</g>
	<g id="SVGRepo_tracerCarrier">
	</g>
	<g id="SVGRepo_iconCarrier">
		<g id="Page-1">
			<g id="Menu">
				<g id="Path">
					<path class="st0" d="M22.5,6h-21C0.7,6,0,5.3,0,4.5S0.7,3,1.5,3h21C23.3,3,24,3.7,24,4.5S23.3,6,22.5,6z"/>
				</g>
				<g id="Path_00000108992365014048533160000012104942816136714378_">
					<path class="st0" d="M22.5,21h-21C0.7,21,0,20.3,0,19.5C0,18.7,0.7,18,1.5,18h21c0.8,0,1.5,0.7,1.5,1.5
						C24,20.3,23.3,21,22.5,21z"/>
				</g>
				<g id="Path_00000139280970190972765110000006398291372677640840_">
					<path class="st0" d="M22.5,13.5h-21C0.7,13.5,0,12.8,0,12s0.7-1.5,1.5-1.5h21c0.8,0,1.5,0.7,1.5,1.5S23.3,13.5,22.5,13.5z"/>
				</g>
			</g>
		</g>
	</g>
</g>
</svg>
