<?xml version="1.0" encoding="utf-8"?>
<!-- Generator: Adobe Illustrator 26.1.0, SVG Export Plug-In . SVG Version: 6.00 Build 0)  -->
<svg version="1.1" id="Livello_1" xmlns="http://www.w3.org/2000/svg" xmlns:xlink="http://www.w3.org/1999/xlink" x="0px" y="0px"
	 viewBox="0 0 50 50" style="enable-background:new 0 0 50 50;" xml:space="preserve">
<style type="text/css">
	.st0{fill:#4A484D;}
</style>
<circle class="st0" cx="25" cy="25" r="4.1"/>
<path class="st0" d="M33.9,16.2c-1-0.9-2.3-1.4-3.7-1.4H19.9c-1.4-0.1-2.7,0.4-3.7,1.3c-0.9,1-1.4,2.3-1.4,3.7v10.3
	c-0.1,1.4,0.4,2.7,1.4,3.7c1,0.9,2.3,1.4,3.7,1.3h10.3c1.4,0.1,2.7-0.4,3.7-1.3c1-1,1.5-2.3,1.5-3.7V19.8
	C35.3,18.5,34.8,17.2,33.9,16.2z M25,31.4c-3.6,0-6.4-2.9-6.4-6.5c0-3.6,2.9-6.4,6.5-6.4s6.4,2.9,6.4,6.5c0,0,0,0,0,0
	C31.5,28.6,28.6,31.4,25,31.4C25,31.4,25,31.4,25,31.4z M31.7,19.8c-0.8,0-1.5-0.7-1.5-1.5s0.7-1.5,1.5-1.5c0.8,0,1.5,0.7,1.5,1.5
	c0,0,0,0,0,0C33.2,19.2,32.5,19.8,31.7,19.8z M33.9,16.2c-1-0.9-2.3-1.4-3.7-1.4H19.9c-1.4-0.1-2.7,0.4-3.7,1.3
	c-0.9,1-1.4,2.3-1.4,3.7v10.3c-0.1,1.4,0.4,2.7,1.4,3.7c1,0.9,2.3,1.4,3.7,1.3h10.3c1.4,0.1,2.7-0.4,3.7-1.3c1-1,1.5-2.3,1.5-3.7
	V19.8C35.3,18.5,34.8,17.2,33.9,16.2z M25,31.4c-3.6,0-6.4-2.9-6.4-6.5c0-3.6,2.9-6.4,6.5-6.4s6.4,2.9,6.4,6.5c0,0,0,0,0,0
	C31.5,28.6,28.6,31.4,25,31.4C25,31.4,25,31.4,25,31.4z M31.7,19.8c-0.8,0-1.5-0.7-1.5-1.5s0.7-1.5,1.5-1.5c0.8,0,1.5,0.7,1.5,1.5
	c0,0,0,0,0,0C33.2,19.2,32.5,19.8,31.7,19.8z M33.9,16.2c-1-0.9-2.3-1.4-3.7-1.4H19.9c-1.4-0.1-2.7,0.4-3.7,1.3
	c-0.9,1-1.4,2.3-1.4,3.7v10.3c-0.1,1.4,0.4,2.7,1.4,3.7c1,0.9,2.3,1.4,3.7,1.3h10.3c1.4,0.1,2.7-0.4,3.7-1.3c1-1,1.5-2.3,1.5-3.7
	V19.8C35.3,18.5,34.8,17.2,33.9,16.2z M25,31.4c-3.6,0-6.4-2.9-6.4-6.5c0-3.6,2.9-6.4,6.5-6.4s6.4,2.9,6.4,6.5c0,0,0,0,0,0
	C31.5,28.6,28.6,31.4,25,31.4C25,31.4,25,31.4,25,31.4z M31.7,19.8c-0.8,0-1.5-0.7-1.5-1.5s0.7-1.5,1.5-1.5c0.8,0,1.5,0.7,1.5,1.5
	c0,0,0,0,0,0C33.2,19.2,32.5,19.8,31.7,19.8z M33.9,16.2c-1-0.9-2.3-1.4-3.7-1.4H19.9c-1.4-0.1-2.7,0.4-3.7,1.3
	c-0.9,1-1.4,2.3-1.4,3.7v10.3c-0.1,1.4,0.4,2.7,1.4,3.7c1,0.9,2.3,1.4,3.7,1.3h10.3c1.4,0.1,2.7-0.4,3.7-1.3c1-1,1.5-2.3,1.5-3.7
	V19.8C35.3,18.5,34.8,17.2,33.9,16.2z M25,31.4c-3.6,0-6.4-2.9-6.4-6.5c0-3.6,2.9-6.4,6.5-6.4s6.4,2.9,6.4,6.5c0,0,0,0,0,0
	C31.5,28.6,28.6,31.4,25,31.4C25,31.4,25,31.4,25,31.4z M31.7,19.8c-0.8,0-1.5-0.7-1.5-1.5s0.7-1.5,1.5-1.5c0.8,0,1.5,0.7,1.5,1.5
	c0,0,0,0,0,0C33.2,19.2,32.5,19.8,31.7,19.8z M33.9,16.2c-1-0.9-2.3-1.4-3.7-1.4H19.9c-1.4-0.1-2.7,0.4-3.7,1.3
	c-0.9,1-1.4,2.3-1.4,3.7v10.3c-0.1,1.4,0.4,2.7,1.4,3.7c1,0.9,2.3,1.4,3.7,1.3h10.3c1.4,0.1,2.7-0.4,3.7-1.3c1-1,1.5-2.3,1.5-3.7
	V19.8C35.3,18.5,34.8,17.2,33.9,16.2z M25,31.4c-3.6,0-6.4-2.9-6.4-6.5c0-3.6,2.9-6.4,6.5-6.4s6.4,2.9,6.4,6.5c0,0,0,0,0,0
	C31.5,28.6,28.6,31.4,25,31.4C25,31.4,25,31.4,25,31.4z M31.7,19.8c-0.8,0-1.5-0.7-1.5-1.5s0.7-1.5,1.5-1.5c0.8,0,1.5,0.7,1.5,1.5
	c0,0,0,0,0,0C33.2,19.2,32.5,19.8,31.7,19.8z M33.9,16.2c-1-0.9-2.3-1.4-3.7-1.4H19.9c-1.4-0.1-2.7,0.4-3.7,1.3
	c-0.9,1-1.4,2.3-1.4,3.7v10.3c-0.1,1.4,0.4,2.7,1.4,3.7c1,0.9,2.3,1.4,3.7,1.3h10.3c1.4,0.1,2.7-0.4,3.7-1.3c1-1,1.5-2.3,1.5-3.7
	V19.8C35.3,18.5,34.8,17.2,33.9,16.2z M25,31.4c-3.6,0-6.4-2.9-6.4-6.5c0-3.6,2.9-6.4,6.5-6.4s6.4,2.9,6.4,6.5c0,0,0,0,0,0
	C31.5,28.6,28.6,31.4,25,31.4C25,31.4,25,31.4,25,31.4z M31.7,19.8c-0.8,0-1.5-0.7-1.5-1.5s0.7-1.5,1.5-1.5c0.8,0,1.5,0.7,1.5,1.5
	c0,0,0,0,0,0C33.2,19.2,32.5,19.8,31.7,19.8z M33.9,16.2c-1-0.9-2.3-1.4-3.7-1.4H19.9c-1.4-0.1-2.7,0.4-3.7,1.3
	c-0.9,1-1.4,2.3-1.4,3.7v10.3c-0.1,1.4,0.4,2.7,1.4,3.7c1,0.9,2.3,1.4,3.7,1.3h10.3c1.4,0.1,2.7-0.4,3.7-1.3c1-1,1.5-2.3,1.5-3.7
	V19.8C35.3,18.5,34.8,17.2,33.9,16.2z M25,31.4c-3.6,0-6.4-2.9-6.4-6.5c0-3.6,2.9-6.4,6.5-6.4s6.4,2.9,6.4,6.5c0,0,0,0,0,0
	C31.5,28.6,28.6,31.4,25,31.4C25,31.4,25,31.4,25,31.4z M31.7,19.8c-0.8,0-1.5-0.7-1.5-1.5s0.7-1.5,1.5-1.5c0.8,0,1.5,0.7,1.5,1.5
	c0,0,0,0,0,0C33.2,19.2,32.5,19.8,31.7,19.8z M33.9,16.2c-1-0.9-2.3-1.4-3.7-1.4H19.9c-1.4-0.1-2.7,0.4-3.7,1.3
	c-0.9,1-1.4,2.3-1.4,3.7v10.3c-0.1,1.4,0.4,2.7,1.4,3.7c1,0.9,2.3,1.4,3.7,1.3h10.3c1.4,0.1,2.7-0.4,3.7-1.3c1-1,1.5-2.3,1.5-3.7
	V19.8C35.3,18.5,34.8,17.2,33.9,16.2z M25,31.4c-3.6,0-6.4-2.9-6.4-6.5c0-3.6,2.9-6.4,6.5-6.4s6.4,2.9,6.4,6.5c0,0,0,0,0,0
	C31.5,28.6,28.6,31.4,25,31.4C25,31.4,25,31.4,25,31.4z M31.7,19.8c-0.8,0-1.5-0.7-1.5-1.5s0.7-1.5,1.5-1.5c0.8,0,1.5,0.7,1.5,1.5
	c0,0,0,0,0,0C33.2,19.2,32.5,19.8,31.7,19.8z M25,0C11.2,0,0,11.2,0,25s11.2,25,25,25s25-11.2,25-25S38.8,0,25,0z M37.5,30.2
	c0.1,2-0.7,3.9-2.1,5.3c-1.4,1.3-3.3,2.1-5.3,2H19.9c-1.9,0.1-3.8-0.7-5.2-2c-1.4-1.4-2.2-3.4-2.1-5.4V19.8
	c-0.2-3.8,2.7-7.1,6.5-7.3c0.3,0,0.6,0,0.8,0h10.4c3.9-0.2,7.1,2.8,7.3,6.7c0,0.2,0,0.4,0,0.6V30.2z M30.2,14.9H19.9
	c-1.4-0.1-2.7,0.4-3.7,1.3c-0.9,1-1.4,2.3-1.4,3.7v10.3c-0.1,1.4,0.4,2.7,1.4,3.7c1,0.9,2.3,1.4,3.7,1.3h10.3
	c1.4,0.1,2.7-0.4,3.7-1.3c1-1,1.5-2.3,1.5-3.7V19.8c0-1.3-0.5-2.6-1.4-3.6C32.9,15.3,31.6,14.8,30.2,14.9z M25,31.4
	c-3.6,0-6.4-2.9-6.4-6.5c0-3.6,2.9-6.4,6.5-6.4s6.4,2.9,6.4,6.5c0,0,0,0,0,0C31.5,28.6,28.6,31.4,25,31.4C25,31.4,25,31.4,25,31.4z
	 M31.7,19.8c-0.8,0-1.5-0.7-1.5-1.5s0.7-1.5,1.5-1.5c0.8,0,1.5,0.7,1.5,1.5c0,0,0,0,0,0C33.2,19.2,32.5,19.8,31.7,19.8z M33.9,16.2
	c-1-0.9-2.3-1.4-3.7-1.4H19.9c-1.4-0.1-2.7,0.4-3.7,1.3c-0.9,1-1.4,2.3-1.4,3.7v10.3c-0.1,1.4,0.4,2.7,1.4,3.7
	c1,0.9,2.3,1.4,3.7,1.3h10.3c1.4,0.1,2.7-0.4,3.7-1.3c1-1,1.5-2.3,1.5-3.7V19.8C35.3,18.5,34.8,17.2,33.9,16.2z M25,31.4
	c-3.6,0-6.4-2.9-6.4-6.5c0-3.6,2.9-6.4,6.5-6.4s6.4,2.9,6.4,6.5c0,0,0,0,0,0C31.5,28.6,28.6,31.4,25,31.4C25,31.4,25,31.4,25,31.4z
	 M31.7,19.8c-0.8,0-1.5-0.7-1.5-1.5s0.7-1.5,1.5-1.5c0.8,0,1.5,0.7,1.5,1.5c0,0,0,0,0,0C33.2,19.2,32.5,19.8,31.7,19.8z M33.9,16.2
	c-1-0.9-2.3-1.4-3.7-1.4H19.9c-1.4-0.1-2.7,0.4-3.7,1.3c-0.9,1-1.4,2.3-1.4,3.7v10.3c-0.1,1.4,0.4,2.7,1.4,3.7
	c1,0.9,2.3,1.4,3.7,1.3h10.3c1.4,0.1,2.7-0.4,3.7-1.3c1-1,1.5-2.3,1.5-3.7V19.8C35.3,18.5,34.8,17.2,33.9,16.2z M25,31.4
	c-3.6,0-6.4-2.9-6.4-6.5c0-3.6,2.9-6.4,6.5-6.4s6.4,2.9,6.4,6.5c0,0,0,0,0,0C31.5,28.6,28.6,31.4,25,31.4C25,31.4,25,31.4,25,31.4z
	 M31.7,19.8c-0.8,0-1.5-0.7-1.5-1.5s0.7-1.5,1.5-1.5c0.8,0,1.5,0.7,1.5,1.5c0,0,0,0,0,0C33.2,19.2,32.5,19.8,31.7,19.8z M33.9,16.2
	c-1-0.9-2.3-1.4-3.7-1.4H19.9c-1.4-0.1-2.7,0.4-3.7,1.3c-0.9,1-1.4,2.3-1.4,3.7v10.3c-0.1,1.4,0.4,2.7,1.4,3.7
	c1,0.9,2.3,1.4,3.7,1.3h10.3c1.4,0.1,2.7-0.4,3.7-1.3c1-1,1.5-2.3,1.5-3.7V19.8C35.3,18.5,34.8,17.2,33.9,16.2z M25,31.4
	c-3.6,0-6.4-2.9-6.4-6.5c0-3.6,2.9-6.4,6.5-6.4s6.4,2.9,6.4,6.5c0,0,0,0,0,0C31.5,28.6,28.6,31.4,25,31.4C25,31.4,25,31.4,25,31.4z
	 M31.7,19.8c-0.8,0-1.5-0.7-1.5-1.5s0.7-1.5,1.5-1.5c0.8,0,1.5,0.7,1.5,1.5c0,0,0,0,0,0C33.2,19.2,32.5,19.8,31.7,19.8z M33.9,16.2
	c-1-0.9-2.3-1.4-3.7-1.4H19.9c-1.4-0.1-2.7,0.4-3.7,1.3c-0.9,1-1.4,2.3-1.4,3.7v10.3c-0.1,1.4,0.4,2.7,1.4,3.7
	c1,0.9,2.3,1.4,3.7,1.3h10.3c1.4,0.1,2.7-0.4,3.7-1.3c1-1,1.5-2.3,1.5-3.7V19.8C35.3,18.5,34.8,17.2,33.9,16.2z M25,31.4
	c-3.6,0-6.4-2.9-6.4-6.5c0-3.6,2.9-6.4,6.5-6.4s6.4,2.9,6.4,6.5c0,0,0,0,0,0C31.5,28.6,28.6,31.4,25,31.4C25,31.4,25,31.4,25,31.4z
	 M31.7,19.8c-0.8,0-1.5-0.7-1.5-1.5s0.7-1.5,1.5-1.5c0.8,0,1.5,0.7,1.5,1.5c0,0,0,0,0,0C33.2,19.2,32.5,19.8,31.7,19.8z M33.9,16.2
	c-1-0.9-2.3-1.4-3.7-1.4H19.9c-1.4-0.1-2.7,0.4-3.7,1.3c-0.9,1-1.4,2.3-1.4,3.7v10.3c-0.1,1.4,0.4,2.7,1.4,3.7
	c1,0.9,2.3,1.4,3.7,1.3h10.3c1.4,0.1,2.7-0.4,3.7-1.3c1-1,1.5-2.3,1.5-3.7V19.8C35.3,18.5,34.8,17.2,33.9,16.2z M25,31.4
	c-3.6,0-6.4-2.9-6.4-6.5c0-3.6,2.9-6.4,6.5-6.4s6.4,2.9,6.4,6.5c0,0,0,0,0,0C31.5,28.6,28.6,31.4,25,31.4C25,31.4,25,31.4,25,31.4z
	 M31.7,19.8c-0.8,0-1.5-0.7-1.5-1.5s0.7-1.5,1.5-1.5c0.8,0,1.5,0.7,1.5,1.5c0,0,0,0,0,0C33.2,19.2,32.5,19.8,31.7,19.8z M33.9,16.2
	c-1-0.9-2.3-1.4-3.7-1.4H19.9c-1.4-0.1-2.7,0.4-3.7,1.3c-0.9,1-1.4,2.3-1.4,3.7v10.3c-0.1,1.4,0.4,2.7,1.4,3.7
	c1,0.9,2.3,1.4,3.7,1.3h10.3c1.4,0.1,2.7-0.4,3.7-1.3c1-1,1.5-2.3,1.5-3.7V19.8C35.3,18.5,34.8,17.2,33.9,16.2z M25,31.4
	c-3.6,0-6.4-2.9-6.4-6.5c0-3.6,2.9-6.4,6.5-6.4s6.4,2.9,6.4,6.5c0,0,0,0,0,0C31.5,28.6,28.6,31.4,25,31.4C25,31.4,25,31.4,25,31.4z
	 M31.7,19.8c-0.8,0-1.5-0.7-1.5-1.5s0.7-1.5,1.5-1.5c0.8,0,1.5,0.7,1.5,1.5c0,0,0,0,0,0C33.2,19.2,32.5,19.8,31.7,19.8z M33.9,16.2
	c-1-0.9-2.3-1.4-3.7-1.4H19.9c-1.4-0.1-2.7,0.4-3.7,1.3c-0.9,1-1.4,2.3-1.4,3.7v10.3c-0.1,1.4,0.4,2.7,1.4,3.7
	c1,0.9,2.3,1.4,3.7,1.3h10.3c1.4,0.1,2.7-0.4,3.7-1.3c1-1,1.5-2.3,1.5-3.7V19.8C35.3,18.5,34.8,17.2,33.9,16.2z M25,31.4
	c-3.6,0-6.4-2.9-6.4-6.5c0-3.6,2.9-6.4,6.5-6.4s6.4,2.9,6.4,6.5c0,0,0,0,0,0C31.5,28.6,28.6,31.4,25,31.4C25,31.4,25,31.4,25,31.4z
	 M31.7,19.8c-0.8,0-1.5-0.7-1.5-1.5s0.7-1.5,1.5-1.5c0.8,0,1.5,0.7,1.5,1.5c0,0,0,0,0,0C33.2,19.2,32.5,19.8,31.7,19.8z M33.9,16.2
	c-1-0.9-2.3-1.4-3.7-1.4H19.9c-1.4-0.1-2.7,0.4-3.7,1.3c-0.9,1-1.4,2.3-1.4,3.7v10.3c-0.1,1.4,0.4,2.7,1.4,3.7
	c1,0.9,2.3,1.4,3.7,1.3h10.3c1.4,0.1,2.7-0.4,3.7-1.3c1-1,1.5-2.3,1.5-3.7V19.8C35.3,18.5,34.8,17.2,33.9,16.2z M25,31.4
	c-3.6,0-6.4-2.9-6.4-6.5c0-3.6,2.9-6.4,6.5-6.4s6.4,2.9,6.4,6.5c0,0,0,0,0,0C31.5,28.6,28.6,31.4,25,31.4C25,31.4,25,31.4,25,31.4z
	 M31.7,19.8c-0.8,0-1.5-0.7-1.5-1.5s0.7-1.5,1.5-1.5c0.8,0,1.5,0.7,1.5,1.5c0,0,0,0,0,0C33.2,19.2,32.5,19.8,31.7,19.8z"/>
</svg>
