<?xml version="1.0" encoding="utf-8"?>
<!-- Generator: Adobe Illustrator 26.1.0, SVG Export Plug-In . SVG Version: 6.00 Build 0)  -->
<svg version="1.1" id="Livello_1" xmlns="http://www.w3.org/2000/svg" xmlns:xlink="http://www.w3.org/1999/xlink" x="0px" y="0px"
	 viewBox="0 0 50 50" style="enable-background:new 0 0 50 50;" xml:space="preserve">
<style type="text/css">
	.st0{fill:#4A484D;}
</style>
<path class="st0" d="M25,0C11.2,0,0,11.2,0,25s11.2,25,25,25s25-11.2,25-25S38.8,0,25,0z M36,35.1c-1.2,1.4-2.9,2.2-4.7,2.4
	c-3,0.1-8-0.6-13.1-5.7s-5.8-10.1-5.7-13.1c0.2-1.8,1-3.4,2.4-4.6c2.2-2.2,5.6-1.9,7,0.6l1,1.8c0.9,1.8,0.5,3.9-0.9,5.2
	c-0.3,0.4-0.5,0.9-0.4,1.4c0,0.8,0.4,2,1.9,3.5c3.2,3.2,4.9,1.5,4.9,1.5c0.9-0.9,2-1.4,3.3-1.4c0.7,0,1.4,0.2,2,0.5l1.8,1
	C37.9,29.5,38.2,32.9,36,35.1z"/>
</svg>
