<?xml version="1.0" encoding="utf-8"?>
<!-- Generator: Adobe Illustrator 26.1.0, SVG Export Plug-In . SVG Version: 6.00 Build 0)  -->
<svg version="1.1" id="Livello_1" xmlns="http://www.w3.org/2000/svg" xmlns:xlink="http://www.w3.org/1999/xlink" x="0px" y="0px"
	 viewBox="0 0 24 24" style="enable-background:new 0 0 24 24;" xml:space="preserve">
<style type="text/css">
	.st0{fill-rule:evenodd;clip-rule:evenodd;fill:#4A484D;}
</style>
<g id="SVGRepo_bgCarrier">
</g>
<g id="SVGRepo_tracerCarrier">
</g>
<g id="SVGRepo_iconCarrier">
	<path class="st0" d="M16.4,8.7c0,2.4-2,4.4-4.4,4.4c-2.4,0-4.4-2-4.4-4.4c0-2.4,2-4.4,4.4-4.4C14.4,4.4,16.4,6.3,16.4,8.7z
		 M14.2,8.7c0,1.2-1,2.2-2.2,2.2s-2.2-1-2.2-2.2c0-1.2,1-2.2,2.2-2.2S14.2,7.5,14.2,8.7z"/>
	<path class="st0" d="M12,0C5.4,0,0,5.4,0,12c0,6.6,5.4,12,12,12c6.6,0,12-5.4,12-12C24,5.4,18.6,0,12,0z M2.2,12
		c0,2.3,0.8,4.4,2.1,6c1.8-2.3,4.6-3.9,7.8-3.9c3.1,0,5.9,1.5,7.7,3.8c1.3-1.7,2-3.7,2-6c0-5.4-4.4-9.8-9.8-9.8
		C6.6,2.2,2.2,6.6,2.2,12z M12,21.8c-2.3,0-4.5-0.8-6.2-2.2c1.4-2,3.7-3.3,6.3-3.3c2.6,0,4.8,1.3,6.2,3.2C16.6,21,14.4,21.8,12,21.8
		z"/>
</g>
</svg>
